# xmcd CD database file
#
# Track frame offsets:
#	150
#	23682
#	48589
#	74731
#	96485
#	127142
#	144950
#	164406
#	193218
#	215797
#	231740
#	252157
#	279768
#	303223
#	321017
#
# Disc length: 4688 seconds
#
# Revision: 0
# Processed by: cddbd v1.5.2PL0 Copyright (c) Steve Scherf et al.
# Submitted via: CDex 1.51
#
DISCID=ea124e0f
DTITLE=Various Artist - Kulturkantine - Exotic Lounge Session [CD2)
DYEAR=2009
DGENRE=Jazz
TTITLE0=Gelka - Eau Rouge Part 1
TTITLE1=ZEB - Flamenco Al Arabia
TTITLE2=Madrid De Los Austrias - Un Mensaje
TTITLE3=Zilverzurf feat. Menad Bouchami - Galib Adouya
TTITLE4=Orient Expressions - Istanbul 1:26 A.M. (Zilver and Gold Remix)
TTITLE5=Dhoop-Sticks - Arab Crap
TTITLE6=Mr. Confuse - Do It Right Now (Aiff Remix)
TTITLE7=Boogoos - The Journey - Ghana '74 /Remix By Dusty)
TTITLE8=Lightning Head - Preguntas Porque
TTITLE9=Up, Bustle And Out - Corazon De Leon (Subrok Mission Remix)
TTITLE10=Sola Rosa - Del Ray (Instrumental)
TTITLE11=Azaxx - Fiesta Tropica
TTITLE12=Zimpala feat. Jonathan Pisa - Hasta La Vista (Steppatronic Mix)
TTITLE13=Ed Royal feat Micheline Cardoso - Coisa Boa
TTITLE14=Christian Hornbostel - A Vineyard In The Desert
EXTD=YEAR: 2009
EXTT0=
EXTT1=
EXTT2=
EXTT3=
EXTT4=
EXTT5=
EXTT6=
EXTT7=
EXTT8=
EXTT9=
EXTT10=
EXTT11=
EXTT12=
EXTT13=
EXTT14=
PLAYORDER=
